<?xml version="1.0" encoding="UTF-8"?><svg xmlns="http://www.w3.org/2000/svg" viewBox="0 0 250 250" fill="#3b82f6"><path d="M150.84,142.75c-.88,7.8-2.19,15.1-2.27,22.89l-.23,23.18c-.02,2.35-2.28,4.67-4.28,4.96-2.22.32-5.01-1.72-5.18-4.29l-.77-11.88c-.7-10.83,1.25-21.15,2.2-32.36-26.17,7.64-52.07,14.92-75.28,28.33l-34.92,20.16c-2.52,1.46-5.54.83-7.03-1.06-1.83-2.33-1.13-5.79,1.58-7.37l23.97-14.06c6.29-3.69,12.45-6.88,18.98-10.18.1-4.11-.09-8.33.36-12.41,2.23-20.24,5.06-39.85,8.58-59.87.78-4.46,1.21-8.28,1.41-13.36-11.06,3.16-21.02,6.19-30.45,11.8l-16.57,9.86-6.8,4.21c-2.66,1.65-5.86,1.15-7.65-1.27-1.69-2.28-1-5.84,1.89-7.54l19.71-11.55c24.64-14.44,64.9-23.31,93.31-25.47,2.79-.21,5.41.82,6.2,3.46.74,2.5-1.22,5.65-4.35,5.85-17.96,1.14-27.86,3.59-45.26,7.52.19,5.97-.27,10.79-1.08,16.42-4.02,22.52-7.52,44.62-9.8,68.3,21.88-8.85,42.5-16.33,64.82-21.88,2.2-12,4.86-23.53,8.59-35.26,4.25-11.66,10.18-22.26,19.14-30.8,3.6-3.43,9.56-8.17,13.9-4.78,1.09.85,2.43,3.2,2.54,4.87l1.36,21.21c.79,12.31,3.7,24.21,5.95,36.35l22.09-1.78c1.97-.16,4.07,2.3,4.23,3.79.23,2.09-1.25,5.02-3.67,5.25l-20.5,1.91c1.06,6.71,16.16,61.32,2.75,58-2.15-.53-3.82-2.62-3.4-5.01,1.89-10.74-5.52-39.45-8.28-52.02-12.08,1.32-23.64,3.31-35.77,5.87ZM152.59,132.59l31.83-5.05c-2.43-11.88-4.64-23.65-6.23-35.65l-1-16.29c-15.93,13.52-20.76,37.38-24.6,56.99Z"/><ellipse cx="229.28" cy="130.35" rx="5.14" ry="5.13"/></svg>