<?xml version="1.0" encoding="UTF-8"?>
<svg id="Camada_1" xmlns="http://www.w3.org/2000/svg" version="1.1" viewBox="0 0 250 250">
  <!-- Generator: Adobe Illustrator 30.2.1, SVG Export Plug-In . SVG Version: 2.1.1 Build 1)  -->
  <defs>
    <style>
      .st0 {
        fill: #3b82f6;
      }
    </style>
  </defs>
  <path class="st0" d="M150.8,142.8c-.9,7.8-2.2,15.1-2.3,22.9l-.2,23.2c0,2.4-2.3,4.7-4.3,5-2.2.3-5-1.7-5.2-4.3l-.8-11.9c-.7-10.8,1.2-21.1,2.2-32.4-26.2,7.6-52.1,14.9-75.3,28.3l-34.6,20.2c-2.5,1.5-5.5.8-7-1.1-1.8-2.3-1.1-5.8,1.6-7.4l24-14.1c6.3-3.7,12.5-6.9,19-10.2,0-4.1,0-8.3.4-12.4,2.2-20.2,5.1-39.8,8.6-59.9.8-4.5,1.2-8.3,1.4-13.4-11.1,3.2-21,6.2-30.5,11.8l-16.6,9.9-6.8,4.2c-2.7,1.7-5.9,1.2-7.6-1.3-1.7-2.3-1-5.8,1.9-7.5l19.7-11.6c24.6-14.4,64.9-23.3,93.3-25.5,2.8-.2,5.4.8,6.2,3.5.7,2.5-1.2,5.7-4.4,5.8-18,1.1-27.9,3.6-45.3,7.5.2,6-.3,10.8-1.1,16.4-4,22.5-7.5,44.6-9.8,68.3,21.9-8.9,42.5-16.3,64.8-21.9,2.2-12,4.9-23.5,8.6-35.3,4.2-11.7,10.2-22.3,19.1-30.8,3.6-3.4,9.6-8.2,13.9-4.8,1.1.8,2.4,3.2,2.5,4.9l1.4,21.2c.8,12.3,3.7,24.2,5.9,36.3l22.1-1.8c2-.2,4.1,2.3,4.2,3.8.2,2.1-1.2,5-3.7,5.2l-20.5,1.9c1.1,6.7,16.2,61.3,2.8,58-2.1-.5-3.8-2.6-3.4-5,1.9-10.7-5.5-39.4-8.3-52-12.1,1.3-23.6,3.3-35.8,5.9h-.3ZM152.6,132.6l31.8-5.1c-2.4-11.9-4.6-23.7-6.2-35.7l-1-16.3c-15.9,13.5-20.8,37.4-24.6,57Z"/>
  <ellipse class="st0" cx="229.3" cy="130.4" rx="5.1" ry="5.1"/>
</svg>